<svg width="73" height="12" viewBox="0 0 73 12" fill="none" xmlns="http://www.w3.org/2000/svg">
<path opacity="0.35" d="M47.7939 2.66667C47.7939 1.47005 48.764 0.5 49.9606 0.5H67.8735C69.0702 0.5 70.0402 1.47005 70.0402 2.66667V9.33333C70.0402 10.5299 69.0702 11.5 67.8735 11.5H49.9606C48.764 11.5 47.7939 10.53 47.7939 9.33333V2.66667Z" stroke="#18216D"/>
<path opacity="0.4" d="M71.5969 3.88232V8.11762C72.4472 7.75891 73.0002 6.92447 73.0002 5.99997C73.0002 5.07548 72.4472 4.24103 71.5969 3.88232Z" fill="#18216D"/>
<path d="M49.4072 3.45101C49.4072 2.71463 50.0042 2.11768 50.7406 2.11768H67.0936C67.8299 2.11768 68.4269 2.71463 68.4269 3.45101V8.54905C68.4269 9.28543 67.8299 9.88238 67.0936 9.88238H50.7406C50.0042 9.88238 49.4072 9.28543 49.4072 8.54905V3.45101Z" fill="#18216D"/>
<path fill-rule="evenodd" clip-rule="evenodd" d="M32.3505 2.41129C34.6919 2.41139 36.9438 3.31291 38.6407 4.92952C38.7685 5.05433 38.9727 5.05276 39.0986 4.92599L40.32 3.6907C40.3838 3.62641 40.4193 3.53932 40.4188 3.4487C40.4182 3.35809 40.3817 3.27142 40.3172 3.20788C35.8634 -1.06929 28.8369 -1.06929 24.383 3.20788C24.3185 3.27137 24.2819 3.35801 24.2813 3.44863C24.2807 3.53924 24.3161 3.62636 24.3798 3.6907L25.6016 4.92599C25.7274 5.05295 25.9318 5.05452 26.0595 4.92952C27.7567 3.31281 30.0088 2.41128 32.3505 2.41129ZM32.3504 6.43028C33.6369 6.4302 34.8774 6.90936 35.831 7.77464C35.96 7.89744 36.1632 7.89478 36.2889 7.76864L37.509 6.53334C37.5732 6.46855 37.6089 6.38065 37.608 6.28931C37.607 6.19797 37.5696 6.11081 37.504 6.04734C34.6002 3.34058 30.1031 3.34058 27.1993 6.04734C27.1337 6.11081 27.0962 6.19801 27.0954 6.28938C27.0945 6.38075 27.1303 6.46864 27.1947 6.53334L28.4144 7.76864C28.5401 7.89478 28.7433 7.89744 28.8723 7.77464C29.8252 6.90993 31.0648 6.43082 32.3504 6.43028ZM34.7945 9.13429C34.7964 9.22588 34.7605 9.31419 34.6952 9.37836L32.5847 11.5126C32.5229 11.5753 32.4385 11.6106 32.3505 11.6106C32.2625 11.6106 32.1781 11.5753 32.1163 11.5126L30.0054 9.37836C29.9402 9.31414 29.9044 9.22581 29.9063 9.13421C29.9082 9.04262 29.9478 8.95588 30.0157 8.89448C31.3635 7.75213 33.3375 7.75213 34.6853 8.89448C34.7532 8.95593 34.7927 9.04269 34.7945 9.13429Z" fill="#18216D"/>
<path fill-rule="evenodd" clip-rule="evenodd" d="M16.9064 0.355713H15.8497C15.2662 0.355713 14.7931 0.829764 14.7931 1.41454V10.591C14.7931 11.1758 15.2662 11.6498 15.8497 11.6498H16.9064C17.49 11.6498 17.963 11.1758 17.963 10.591V1.41454C17.963 0.829764 17.49 0.355713 16.9064 0.355713ZM10.9186 2.82635H11.9753C12.5588 2.82635 13.0319 3.30041 13.0319 3.88518V10.5911C13.0319 11.1758 12.5588 11.6499 11.9753 11.6499H10.9186C10.335 11.6499 9.86196 11.1758 9.86196 10.5911V3.88518C9.86196 3.30041 10.335 2.82635 10.9186 2.82635ZM7.04443 5.29688H5.98778C5.40421 5.29688 4.93113 5.77093 4.93113 6.3557V10.591C4.93113 11.1758 5.40421 11.6498 5.98778 11.6498H7.04443C7.628 11.6498 8.10108 11.1758 8.10108 10.591V6.3557C8.10108 5.77093 7.628 5.29688 7.04443 5.29688ZM2.1133 7.41451H1.05665C0.473077 7.41451 0 7.88856 0 8.47333V10.591C0 11.1757 0.473077 11.6498 1.05665 11.6498H2.1133C2.69687 11.6498 3.16994 11.1757 3.16994 10.591V8.47333C3.16994 7.88856 2.69687 7.41451 2.1133 7.41451Z" fill="#18216D"/>
</svg>
