<svg width="31" height="12" viewBox="0 0 31 12" fill="none" xmlns="http://www.w3.org/2000/svg">
<path d="M4.18494 12C7.09379 12 8.82166 9.72523 8.82166 5.87318C8.82166 4.42272 8.54425 3.20211 8.01321 2.25892C7.24439 0.792602 5.92074 0 4.24835 0C1.75958 0 0 1.67239 0 4.01849C0 6.22193 1.5852 7.82299 3.76486 7.82299C5.10436 7.82299 6.19022 7.19683 6.72919 6.11096H6.75297C6.75297 6.11096 6.78468 6.11096 6.7926 6.11096C6.80845 6.11096 6.86394 6.11096 6.86394 6.11096C6.86394 8.72655 5.87318 10.288 4.20079 10.288C3.21797 10.288 2.45707 9.74901 2.19551 8.88507H0.15852C0.499339 10.7635 2.09247 12 4.18494 12ZM4.25627 6.19815C2.94055 6.19815 2.00528 5.26288 2.00528 3.95509C2.00528 2.679 2.98811 1.7041 4.2642 1.7041C5.54029 1.7041 6.52312 2.69485 6.52312 3.98679C6.52312 5.26288 5.56407 6.19815 4.25627 6.19815Z" fill="#18216D"/>
<path d="M12.1668 11.889C12.9197 11.889 13.4349 11.3501 13.4349 10.6367C13.4349 9.91546 12.9197 9.38441 12.1668 9.38441C11.4217 9.38441 10.8986 9.91546 10.8986 10.6367C10.8986 11.3501 11.4217 11.889 12.1668 11.889ZM12.1668 5.94452C12.9197 5.94452 13.4349 5.41347 13.4349 4.70013C13.4349 3.97886 12.9197 3.44782 12.1668 3.44782C11.4217 3.44782 10.8986 3.97886 10.8986 4.70013C10.8986 5.41347 11.4217 5.94452 12.1668 5.94452Z" fill="#18216D"/>
<path d="M20.854 11.7226H22.8117V9.59049H24.3573V7.86262H22.8117V0.285337H19.9267C17.9055 3.32893 16.2965 5.87318 15.2662 7.7675V9.59049H20.854V11.7226ZM17.1605 7.79128C18.492 5.44518 19.681 3.56671 20.7747 1.9498H20.8857V7.91017H17.1605V7.79128Z" fill="#18216D"/>
<path d="M28.7169 11.7226H30.7618V0.285337H28.7249L25.7367 2.37781V4.34346L28.5822 2.3461H28.7169V11.7226Z" fill="#18216D"/>
</svg>
